<?xml version="1.0" encoding="UTF-8"?>
<svg version="1.1" xmlns="http://www.w3.org/2000/svg" width="157" height="71">
<path d="M0 0 C51.81 0 103.62 0 157 0 C157 23.43 157 46.86 157 71 C105.19 71 53.38 71 0 71 C0 47.57 0 24.14 0 0 Z " fill="#FEFEFE" transform="translate(0,0)"/>
<path d="M0 0 C1.65 0 3.3 0 5 0 C6.65 4.62 8.3 9.24 10 14 C8.35 14 6.7 14 5 14 C5 13.34 5 12.68 5 12 C3.35 12 1.7 12 0 12 C0 12.66 0 13.32 0 14 C-1.65 14 -3.3 14 -5 14 C-3.45730076 9.27934033 -1.92205381 4.58335908 0 0 Z " fill="#DB4E49" transform="translate(29,28)"/>
<path d="M0 0 C1.670625 0.061875 1.670625 0.061875 3.375 0.125 C4.035 1.445 4.695 2.765 5.375 4.125 C3.395 4.125 1.415 4.125 -0.625 4.125 C1.355 5.115 3.335 6.105 5.375 7.125 C5.5 9.5 5.5 9.5 5.375 12.125 C3.375 14.125 3.375 14.125 -0.0625 14.375 C-3.625 14.125 -3.625 14.125 -6.625 12.125 C-6.625 11.465 -6.625 10.805 -6.625 10.125 C-3.985 10.455 -1.345 10.785 1.375 11.125 C1.045 10.465 0.715 9.805 0.375 9.125 C-0.45 8.856875 -1.275 8.58875 -2.125 8.3125 C-4.625 7.125 -4.625 7.125 -5.5625 4.625 C-5.583125 3.8 -5.60375 2.975 -5.625 2.125 C-3.625 0.125 -3.625 0.125 0 0 Z " fill="#DA4642" transform="translate(88.625,27.875)"/>
<path d="M0 0 C1 1 1 1 1.25 4.4375 C1.1675 5.613125 1.085 6.78875 1 8 C-2.23253796 10.15502531 -3.25150923 10.46856135 -7 10 C-8.8125 8.8125 -8.8125 8.8125 -10 7 C-10.42674516 4.15503228 -10.36066991 2.63647631 -8.9375 0.125 C-5.85798867 -1.66310335 -3.35666727 -0.74592606 0 0 Z " fill="#D9423E" transform="translate(108,32)"/>
<path d="M0 0 C1 1 1 1 1.25 4.4375 C1.1675 5.613125 1.085 6.78875 1 8 C-2.23253796 10.15502531 -3.25150923 10.46856135 -7 10 C-8.8125 8.8125 -8.8125 8.8125 -10 7 C-10.42674516 4.15503228 -10.36066991 2.63647631 -8.9375 0.125 C-5.85798867 -1.66310335 -3.35666727 -0.74592606 0 0 Z " fill="#DE5E5A" transform="translate(77,32)"/>
<path d="M0 0 C1.875 1.3125 1.875 1.3125 3 3 C3 3.99 3 4.98 3 6 C1.35 6.33 -0.3 6.66 -2 7 C-0.68 7 0.64 7 2 7 C1.34 8.32 0.68 9.64 0 11 C-5.42857143 11.36190476 -5.42857143 11.36190476 -7.875 9.8125 C-9.40659584 7.34492892 -9.42822025 5.85480169 -9 3 C-6.73529086 -0.64869805 -4.03159541 -0.50394943 0 0 Z " fill="#DB4B46" transform="translate(130,31)"/>
<path d="M0 0 C0.33 1.65 0.66 3.3 1 5 C-1.31 5 -3.62 5 -6 5 C-6 5.66 -6 6.32 -6 7 C-2.535 6.505 -2.535 6.505 1 6 C-0.125 8 -0.125 8 -2 10 C-5.0625 10.375 -5.0625 10.375 -8 10 C-10 8 -10 8 -10.3125 4.5 C-10.209375 3.345 -10.10625 2.19 -10 1 C-6.1496895 -1.56687367 -4.41430237 -0.83288724 0 0 Z " fill="#DA4843" transform="translate(52,32)"/>
<path d="M0 0 C1.32 0 2.64 0 4 0 C4 4.62 4 9.24 4 14 C2.68 14 1.36 14 0 14 C0 9.38 0 4.76 0 0 Z " fill="#DA4844" transform="translate(113,28)"/>
<path d="M0 0 C2.64 0 5.28 0 8 0 C7.67 0.99 7.34 1.98 7 3 C6.01 3 5.02 3 4 3 C4 5.64 4 8.28 4 11 C2.68 11 1.36 11 0 11 C0 7.37 0 3.74 0 0 Z " fill="#DA4A45" transform="translate(57,31)"/>
<path d="M0 0 C1.32 0.33 2.64 0.66 4 1 C3.67 2.32 3.34 3.64 3 5 C2.01 5 1.02 5 0 5 C0 3.35 0 1.7 0 0 Z " fill="#F7DAD9" transform="translate(102,34)"/>
</svg>
